<svg viewBox="0 0 160 180" xmlns="http://www.w3.org/2000/svg">
  <defs>
    <pattern id="g" width="16" height="16" patternUnits="userSpaceOnUse">
      <path d="M16 0L0 0 0 16" fill="none" stroke="#00C2C7" stroke-width="0.2" opacity="0.15"/>
    </pattern>
  </defs>
  <rect width="160" height="180" fill="#0a0a0b"/>
  <rect width="160" height="180" fill="url(#g)"/>
  <rect x="1" y="1" width="158" height="178" rx="4" fill="none" stroke="rgba(255,255,255,0.06)" stroke-width="1"/>
  <g transform="translate(80,82)"><path d="M0 -28 C18 -28 28 -16 28 0 C28 16 18 28 0 28 C-18 28 -28 16 -28 0 C-28 -16 -18 -28 0 -28Z" fill="none" stroke="#FFC93C" stroke-width="2.5"/><circle cx="0" cy="0" r="10" fill="none" stroke="#FFC93C" stroke-width="2"/><line x1="-28" y1="0" x2="28" y2="0" stroke="#FFC93C" stroke-width="1" opacity="0.5"/><line x1="0" y1="-28" x2="0" y2="28" stroke="#FFC93C" stroke-width="1" opacity="0.5"/><circle cx="0" cy="0" r="3.5" fill="#FFC93C"/></g>
  <line x1="20" y1="148" x2="140" y2="148" stroke="rgba(255,255,255,0.06)" stroke-width="1"/>
  <text x="80" y="166" text-anchor="middle" font-family="Courier New, monospace" font-size="10" fill="rgba(232,228,216,0.55)" letter-spacing="2">CULTURE</text>
  <text x="80" y="178" text-anchor="middle" font-family="Courier New, monospace" font-size="7" fill="#FFC93C" letter-spacing="1" opacity="0.6">CMS v2.0</text>
</svg>