<svg viewBox="0 0 400 300" xmlns="http://www.w3.org/2000/svg">
  <defs>
    <filter id="glow"><feGaussianBlur stdDeviation="3" result="blur"/><feMerge><feMergeNode in="blur"/><feMergeNode in="SourceGraphic"/></feMerge></filter>
  </defs>
  <rect width="400" height="220" fill="#111114"/>
  <line x1="120" y1="60" x2="200" y2="40" stroke="rgba(255,255,255,0.12)" stroke-width="1.5"/>
  <line x1="200" y1="40" x2="280" y2="70" stroke="rgba(255,255,255,0.12)" stroke-width="1.5"/>
  <line x1="120" y1="60" x2="80" y2="120" stroke="rgba(255,255,255,0.12)" stroke-width="1.5"/>
  <line x1="120" y1="60" x2="200" y2="110" stroke="rgba(255,255,255,0.12)" stroke-width="1.5"/>
  <line x1="200" y1="40" x2="200" y2="110" stroke="rgba(255,255,255,0.12)" stroke-width="1.5"/>
  <line x1="280" y1="70" x2="320" y2="140" stroke="rgba(255,255,255,0.12)" stroke-width="1.5"/>
  <line x1="200" y1="110" x2="240" y2="170" stroke="rgba(255,255,255,0.12)" stroke-width="1.5"/>
  <line x1="80" y1="120" x2="160" y2="170" stroke="rgba(255,255,255,0.12)" stroke-width="1.5"/>
  <line x1="160" y1="170" x2="240" y2="170" stroke="rgba(255,255,255,0.12)" stroke-width="1.5"/>
  <line x1="240" y1="170" x2="320" y2="140" stroke="rgba(255,255,255,0.12)" stroke-width="1.5"/>
  <circle cx="200" cy="40" r="9" fill="#003E6B" stroke="#00C2C7" stroke-width="2.5" filter="url(#glow)"/>
  <circle cx="120" cy="60" r="7" fill="#003E6B" stroke="#FFC93C" stroke-width="2.5"/>
  <circle cx="280" cy="70" r="6" fill="#003E6B" stroke="#00C2C7" stroke-width="2" opacity="0.8"/>
  <circle cx="80" cy="120" r="6" fill="#003E6B" stroke="#3FA66B" stroke-width="2"/>
  <circle cx="200" cy="110" r="8" fill="#003E6B" stroke="#FFC93C" stroke-width="2.5"/>
  <circle cx="320" cy="140" r="5" fill="#003E6B" stroke="#FF6F61" stroke-width="2" opacity="0.9"/>
  <circle cx="160" cy="170" r="7" fill="#003E6B" stroke="#00C2C7" stroke-width="2.5"/>
  <circle cx="240" cy="170" r="6" fill="#003E6B" stroke="#FFC93C" stroke-width="2"/>
  <line x1="0" y1="240" x2="400" y2="240" stroke="rgba(255,255,255,0.06)" stroke-width="1"/>
  <text x="200" y="262" text-anchor="middle" font-family="Courier New,monospace" font-size="9" fill="rgba(255,199,60,0.7)" letter-spacing="3">RÉSEAU DE DONNÉES</text>
  <text x="200" y="278" text-anchor="middle" font-family="Courier New,monospace" font-size="8" fill="rgba(232,228,216,0.35)" letter-spacing="1">Connexions, métadonnées, identités multiples, graphe.</text>
  <text x="200" y="293" text-anchor="middle" font-family="Courier New,monospace" font-size="7" fill="#FFC93C" letter-spacing="1" opacity="0.5">Caribbean Metadata Standard v2.0</text>
</svg>