<svg viewBox="0 0 400 300" xmlns="http://www.w3.org/2000/svg">
  <rect width="400" height="220" fill="#111114"/>
  <path d="M0,80 C50,55 100,55 150,80 C200,105 250,105 300,80 C350,55 380,58 400,68" fill="none" stroke="#00C2C7" stroke-width="3.5" opacity="0.9"/>
  <path d="M0,100 C50,75 100,75 150,100 C200,125 250,125 300,100 C350,75 380,78 400,88" fill="none" stroke="#00C2C7" stroke-width="2" opacity="0.5"/>
  <path d="M0,120 C50,95 100,95 150,120 C200,145 250,145 300,120 C350,95 380,98 400,108" fill="none" stroke="#FFC93C" stroke-width="2.5" opacity="0.8"/>
  <path d="M0,140 C50,115 100,115 150,140 C200,165 250,165 300,140 C350,115 380,118 400,128" fill="none" stroke="#FFC93C" stroke-width="1.2" opacity="0.4"/>
  <path d="M0,160 C50,135 100,135 150,160 C200,185 250,185 300,160 C350,135 380,138 400,148" fill="none" stroke="#FF6F61" stroke-width="2" opacity="0.6"/>
  <line x1="0" y1="240" x2="400" y2="240" stroke="rgba(255,255,255,0.06)" stroke-width="1"/>
  <text x="200" y="262" text-anchor="middle" font-family="Courier New,monospace" font-size="9" fill="rgba(255,199,60,0.7)" letter-spacing="3">ONDES CARIBÉENNES</text>
  <text x="200" y="278" text-anchor="middle" font-family="Courier New,monospace" font-size="8" fill="rgba(232,228,216,0.35)" letter-spacing="1">Vagues, rythmes musicaux, musicalité des langues créoles.</text>
  <text x="200" y="293" text-anchor="middle" font-family="Courier New,monospace" font-size="7" fill="#FFC93C" letter-spacing="1" opacity="0.5">Caribbean Metadata Standard v2.0</text>
</svg>